<svg width="32" height="32" viewBox="0 0 32 32" fill="none" xmlns="http://www.w3.org/2000/svg">
<path fill-rule="evenodd" clip-rule="evenodd" d="M15.3334 3.66669C8.89003 3.66669 3.66669 8.89003 3.66669 15.3334C3.66669 21.7767 8.89003 27 15.3334 27C21.7767 27 27 21.7767 27 15.3334C27 8.89003 21.7767 3.66669 15.3334 3.66669ZM1.66669 15.3334C1.66669 7.78546 7.78546 1.66669 15.3334 1.66669C22.8812 1.66669 29 7.78546 29 15.3334C29 18.7474 27.7482 21.869 25.6785 24.2643L30.0405 28.6262C30.431 29.0168 30.431 29.6499 30.0405 30.0405C29.6499 30.431 29.0168 30.431 28.6262 30.0405L24.2643 25.6785C21.869 27.7482 18.7474 29 15.3334 29C7.78546 29 1.66669 22.8812 1.66669 15.3334Z" fill="white"/>
</svg>
